<svg width="106" height="26" viewBox="0 0 106 26" fill="none" xmlns="http://www.w3.org/2000/svg">
<path d="M11.605 7.78202L11.835 5.41302C11.926 4.46102 12.815 3.81502 13.713 4.04702C15.064 4.39702 16.013 5.65202 16.013 7.09102V10.126C16.013 10.801 16.013 11.139 16.159 11.386C16.242 11.527 16.356 11.646 16.492 11.731C16.732 11.882 17.059 11.882 17.712 11.882H18.108C19.811 11.882 20.662 11.882 21.186 12.272C21.579 12.565 21.856 12.994 21.966 13.48C22.112 14.13 21.785 14.943 21.13 16.567L20.804 17.377C20.6149 17.8462 20.5376 18.3528 20.578 18.857C20.81 21.731 18.531 24.152 15.745 23.993L5.32103 23.394C4.18203 23.329 3.61303 23.296 3.09903 22.841C2.58403 22.386 2.48703 21.917 2.29403 20.98C1.88326 18.9866 1.90201 16.9286 2.34903 14.943C2.63203 13.695 3.82403 13.023 5.05503 13.183C8.31903 13.603 11.278 11.164 11.605 7.78302V7.78202Z" stroke="#D8D8D8" stroke-width="1.33333" stroke-linecap="round" stroke-linejoin="round"/>
<path d="M7.00003 13.5L6.86303 13.957C5.97613 16.9135 6.02398 20.0717 7.00003 23" stroke="#D8D8D8" stroke-width="1.33333" stroke-linecap="round" stroke-linejoin="round"/>
<path d="M99.5 18.9583H86.5V11.375C86.5 7.78537 89.4104 4.875 93 4.875C96.5896 4.875 99.5 7.78537 99.5 11.375V18.9583Z" stroke="#D8D8D8" stroke-width="1.33333" stroke-linejoin="round"/>
<path d="M84.3333 22.75H101.667" stroke="#D8D8D8" stroke-width="1.33333" stroke-linecap="round" stroke-linejoin="round"/>
<g clip-path="url(#clip0_667_2151)">
<path d="M57.3333 24.6667C56.9812 24.667 56.6433 24.528 56.3933 24.28L52 19.88L47.64 24.2267C47.4556 24.4238 47.2156 24.5604 46.9519 24.6182C46.6882 24.676 46.4132 24.6524 46.1632 24.5505C45.9132 24.4486 45.7 24.2733 45.5518 24.0476C45.4036 23.8219 45.3274 23.5566 45.3333 23.2867V4.66671C45.3333 4.31309 45.4738 3.97395 45.7238 3.7239C45.9739 3.47385 46.313 3.33337 46.6667 3.33337H57.3333C57.6869 3.33337 58.0261 3.47385 58.2761 3.7239C58.5262 3.97395 58.6667 4.31309 58.6667 4.66671V23.3334C58.6667 23.687 58.5262 24.0261 58.2761 24.2762C58.0261 24.5262 57.6869 24.6667 57.3333 24.6667ZM57.3333 23.3334V4.66671H46.6667V23.2867L52 18L57.3333 23.3334Z" fill="#D8D8D8"/>
</g>
<defs>
<clipPath id="clip0_667_2151">
<rect width="24" height="24" fill="white" transform="translate(40 2)"/>
</clipPath>
</defs>
</svg>