<svg width="18" height="18" viewBox="0 0 18 18" fill="none" xmlns="http://www.w3.org/2000/svg">
<g clip-path="url(#clip0_667_1020)">
<path d="M4.17678 11.25L6.76248 13.6836C6.88904 13.8072 6.96203 13.9755 6.96575 14.1523C6.96947 14.3292 6.90363 14.5004 6.78238 14.6292C6.66114 14.758 6.49418 14.834 6.31743 14.841C6.14069 14.8479 5.96827 14.7852 5.83728 14.6664L2.01228 11.0664C1.94527 11.0033 1.89187 10.9271 1.85538 10.8426C1.81888 10.7581 1.80005 10.667 1.80005 10.575C1.80005 10.4829 1.81888 10.3918 1.85538 10.3073C1.89187 10.2228 1.94527 10.1467 2.01228 10.0836L5.83728 6.48358C5.90145 6.42092 5.97745 6.37168 6.06086 6.33873C6.14427 6.30578 6.23341 6.28978 6.32307 6.29167C6.41273 6.29355 6.50112 6.31329 6.58306 6.34972C6.66501 6.38615 6.73888 6.43854 6.80035 6.50384C6.86182 6.56914 6.90967 6.64603 6.94109 6.73003C6.97251 6.81402 6.98687 6.90344 6.98335 6.99305C6.97982 7.08266 6.95847 7.17067 6.92055 7.25194C6.88263 7.33321 6.8289 7.40611 6.76248 7.46638L4.17678 9.89998H13.2749C13.6926 9.89998 14.0932 9.73404 14.3886 9.43867C14.6839 9.1433 14.8499 8.74269 14.8499 8.32498V4.27498C14.8499 4.09595 14.921 3.92427 15.0476 3.79768C15.1742 3.67109 15.3459 3.59998 15.5249 3.59998C15.7039 3.59998 15.8756 3.67109 16.0022 3.79768C16.1288 3.92427 16.1999 4.09595 16.1999 4.27498V8.32498C16.1999 9.10073 15.8917 9.84472 15.3432 10.3933C14.7946 10.9418 14.0506 11.25 13.2749 11.25H4.17678Z" fill="#636363"/>
</g>
<defs>
<clipPath id="clip0_667_1020">
<rect width="18" height="18" fill="white"/>
</clipPath>
</defs>
</svg>
