<svg width="16" height="16" viewBox="0 0 16 16" fill="none" xmlns="http://www.w3.org/2000/svg">
<g clip-path="url(#clip0_773_1069)">
<path d="M8.26339 3.85472L8.11006 2.27539C8.04939 1.64072 7.45673 1.21006 6.85806 1.36472C5.95739 1.59806 5.32473 2.43472 5.32473 3.39406V5.41739C5.32473 5.86739 5.32473 6.09272 5.22739 6.25739C5.17206 6.35139 5.09606 6.43072 5.00539 6.48739C4.84539 6.58806 4.62739 6.58806 4.19206 6.58806H3.92806C2.79273 6.58806 2.22539 6.58806 1.87606 6.84806C1.61406 7.04339 1.42939 7.32939 1.35606 7.65339C1.25873 8.08672 1.47673 8.62872 1.91339 9.71139L2.13073 10.2514C2.25679 10.5641 2.30837 10.9019 2.28139 11.2381C2.12673 13.1541 3.64606 14.7681 5.50339 14.6621L12.4527 14.2627C13.2121 14.2194 13.5914 14.1974 13.9341 13.8941C14.2774 13.5907 14.3421 13.2781 14.4707 12.6534C14.7446 11.3245 14.7321 9.95244 14.4341 8.62872C14.2454 7.79672 13.4507 7.34872 12.6301 7.45539C10.4541 7.73539 8.48139 6.10939 8.26339 3.85539V3.85472Z" stroke="#D8D8D8" stroke-width="1.33333" stroke-linecap="round" stroke-linejoin="round"/>
<path d="M11.3334 7.66675L11.4247 7.97141C12.016 9.9424 11.9841 12.0479 11.3334 14.0001" stroke="#D8D8D8" stroke-width="1.33333" stroke-linecap="round" stroke-linejoin="round"/>
</g>
<defs>
<clipPath id="clip0_773_1069">
<rect width="16" height="16" fill="white" transform="matrix(-1 0 0 1 16 0)"/>
</clipPath>
</defs>
</svg>