<svg width="16" height="16" viewBox="0 0 16 16" fill="none" xmlns="http://www.w3.org/2000/svg">
<g clip-path="url(#clip0_667_910)">
<path d="M8.11006 2.27539L8.26339 3.85472C8.48139 6.10872 10.4541 7.73539 12.6301 7.45539C13.4507 7.34872 14.2454 7.79672 14.4341 8.62872C14.7321 9.95244 14.7446 11.3245 14.4707 12.6534C14.3421 13.2781 14.2774 13.5907 13.9341 13.8941C13.5914 14.1974 13.2121 14.2194 12.4527 14.2627L5.50339 14.6621C3.64606 14.7681 2.12673 13.1541 2.28139 11.2381C2.30837 10.9019 2.25679 10.5641 2.13073 10.2514L1.91339 9.71139C1.47673 8.62872 1.25873 8.08672 1.35606 7.65339C1.42939 7.32939 1.61406 7.04339 1.87606 6.84806C2.22539 6.58806 2.79273 6.58806 3.92806 6.58806H4.19206C4.62739 6.58806 4.84539 6.58806 5.00539 6.48739C5.09606 6.43072 5.17206 6.35139 5.22739 6.25739C5.32473 6.09272 5.32473 5.86739 5.32473 5.41739V3.39406C5.32473 2.43472 5.95739 1.59806 6.85806 1.36472C7.45673 1.21006 8.04939 1.64072 8.11006 2.27539Z" stroke="#326A31" stroke-width="1.33333" stroke-linecap="round" stroke-linejoin="round"/>
<path d="M11.3334 7.66675L11.4247 7.97141C12.016 9.9424 11.9841 12.0479 11.3334 14.0001" stroke="#326A31" stroke-width="1.33333" stroke-linecap="round" stroke-linejoin="round"/>
</g>
<defs>
<clipPath id="clip0_667_910">
<rect width="16" height="16" fill="white" transform="matrix(-1 0 0 1 16 0)"/>
</clipPath>
</defs>
</svg>
