<svg width="24" height="24" viewBox="0 0 24 24" fill="none" xmlns="http://www.w3.org/2000/svg">
<rect width="24" height="24" rx="5" fill="#D8D8D8"/>
<path d="M18.3882 19.3752H5.61179C5.60962 19.3751 5.6065 19.3749 5.6025 19.3747C5.58533 19.3734 5.55428 19.3705 5.5144 19.3639C5.42989 19.3498 5.3325 19.3235 5.24721 19.2808C5.16584 19.2401 5.11489 19.1948 5.08205 19.1455C5.05338 19.1025 5 19.0003 5 18.7752C5 18.2145 5.31424 16.8452 6.35926 15.626C7.36334 14.4546 9.08269 13.3752 12 13.3752C14.9173 13.3752 16.6367 14.4546 17.6407 15.626C18.6858 16.8452 19 18.2145 19 18.7752C19 19.0003 18.9466 19.1025 18.9179 19.1455C18.8851 19.1948 18.8342 19.2401 18.7528 19.2808C18.6675 19.3235 18.5701 19.3498 18.4856 19.3639C18.4457 19.3705 18.4147 19.3734 18.3975 19.3747C18.3935 19.3749 18.3904 19.3751 18.3882 19.3752Z" stroke="#F5F5F5" stroke-width="2"/>
<path d="M14.219 9.52738C13.7189 10.0275 13.0407 10.3084 12.3334 10.3084C11.6262 10.3084 10.9479 10.0275 10.4478 9.52738C9.9477 9.02729 9.66675 8.34901 9.66675 7.64176C9.66675 6.93452 9.9477 6.25624 10.4478 5.75615C10.9479 5.25605 11.6262 4.9751 12.3334 4.9751C13.0407 4.9751 13.7189 5.25605 14.219 5.75615C14.7191 6.25624 15.0001 6.93452 15.0001 7.64176C15.0001 8.34901 14.7191 9.02729 14.219 9.52738Z" stroke="#F5F5F5" stroke-width="2"/>
</svg>
